<svg width="1440" height="173" viewBox="0 0 1440 173" fill="none" xmlns="http://www.w3.org/2000/svg">
<path fill-rule="evenodd" clip-rule="evenodd" d="M1440 172.737V12.7373L1410 7.43729C1380 1.73729 1320 -8.26271 1260 12.7373C1224.2 25.2689 1188.39 49.552 1152.59 73.8351C1128.39 90.2446 1104.2 106.654 1080 119.437C1020 151.737 960 161.737 900 167.437C840 172.737 780 172.737 720 151.437C679.4 136.754 638.8 112.775 598.2 88.7964C578.8 77.3387 559.4 65.881 540 55.4373C480 23.7373 420 1.73729 360 18.0373C322.079 27.9599 284.158 53.1811 246.238 78.4023C224.158 93.0872 202.079 107.772 180 119.437C123.367 149.925 66.7331 160.545 35.3279 166.434C33.461 166.784 31.6833 167.117 30 167.437L0 172.737H1440Z" fill="white"/>
</svg>
